# xmcd
#
# Track frame offsets:
#	150
#	18942
#	44752
#	57880
#	84504
#	104752
#	121772
#	138550
#	157770
#	173017
#	190842
#	205805
#
# Disc length: 2980
#
# Revision: 5
# Processed by: cddbd v1.5.1PL0 Copyright (c) Steve Scherf et al.
# Submitted via: FreeRIP 2.53 
# Normalized: r4:TDELIM( - ),TSWAP
#
DISCID=9c0ba20c
DTITLE=Various Artist - Australia's Favourite Line Dances Volume 3
DYEAR=1995
DGENRE=Country
TTITLE0=Scooter Lee - Honky Tonk Twist (Dance Mix)
TTITLE1=The Escape Club - Wild Wild West
TTITLE2=Dolly Parton - Applejack
TTITLE3=Country Cowboys - Thank God I'm A Country Boy
TTITLE4=Dwight Yoakum - A Thousand Miles From Nowhere
TTITLE5=Audio Murphy - Tighten Up Your Pants
TTITLE6=Michael Martin Murphey - Tonight We Ride
TTITLE7=Tornado - Ghostriders In The Sky (Line Dance Mix)
TTITLE8=Mary Chapin Carpenter - Passionate Kisses
TTITLE9=The Party Shooters - Alien Boogie
TTITLE10=John Michael Montgomery - Kickin' It Up
TTITLE11=Collin Raye - Dreaming My Dreams With You
EXTD=YEAR: 1995
EXTT0=
EXTT1=
EXTT2=
EXTT3=
EXTT4=
EXTT5=
EXTT6=
EXTT7=
EXTT8=
EXTT9=
EXTT10=
EXTT11=
PLAYORDER=
